<?xml version="1.0" standalone="no"?><!DOCTYPE svg PUBLIC "-//W3C//DTD SVG 1.1//EN" "http://www.w3.org/Graphics/SVG/1.1/DTD/svg11.dtd"><svg t="1541553565491" class="icon" style="" viewBox="0 0 1024 1024" version="1.1" xmlns="http://www.w3.org/2000/svg" p-id="1955" xmlns:xlink="http://www.w3.org/1999/xlink" width="128" height="128"><defs><style type="text/css"></style></defs><path d="M515.359 897.193c-32.067 0-64.13-2.915-94.737-8.745l-222.987 135.55L197.635 799.548C81.04 717.933 6.71 592.594 6.71 452.679 6.71 206.37 234.072 6.7 515.359 6.7c281.284 0 508.639 199.669 508.639 445.979C1023.997 698.983 796.643 897.193 515.359 897.193zM515.359 70.827c-246.309 0-445.981 170.52-445.981 381.852 0 129.71 75.787 243.389 189.47 311.889l0 148.66 150.115-90.365c34.98 7.295 69.957 11.67 107.852 11.67 246.304 0 445.974-170.525 445.974-381.854C961.338 241.347 761.663 70.827 515.359 70.827zM738.348 420.614 292.367 420.614c-17.487 0-32.065-14.575-32.065-32.065 0-17.487 14.577-32.062 32.065-32.062l445.981 0c17.49 0 32.06 14.575 32.06 32.062C770.408 406.039 755.838 420.614 738.348 420.614zM356.497 547.409l317.717 0c17.49 0 32.065 14.575 32.065 32.065 0 17.485-14.575 32.07-32.065 32.07L356.497 611.544c-17.492 0-32.065-14.575-32.065-32.07C324.432 561.984 339.004 547.409 356.497 547.409z" p-id="1956"></path></svg>