<?xml version="1.0" standalone="no"?><!DOCTYPE svg PUBLIC "-//W3C//DTD SVG 1.1//EN" "http://www.w3.org/Graphics/SVG/1.1/DTD/svg11.dtd"><svg t="1541574249014" class="icon" style="" viewBox="0 0 1024 1024" version="1.1" xmlns="http://www.w3.org/2000/svg" p-id="7127" xmlns:xlink="http://www.w3.org/1999/xlink" width="128" height="128"><defs><style type="text/css">html, * { user-select: text !important; }
</style></defs><path d="M911.68 0H111.68a64 64 0 0 0-64 64v896a64 64 0 0 0 64 64h800a64 64 0 0 0 64-64V64a64 64 0 0 0-64-64z m0 960H111.68V64h800z" fill="#279cf5" p-id="7128"></path><path d="M271.68 304.64h472a32 32 0 1 0 0-64H271.68a32 32 0 0 0 0 64zM271.68 539.52h408.64a32 32 0 0 0 0-64H271.68a32 32 0 1 0 0 64zM271.68 737.92h376.64a32 32 0 1 0 0-64H271.68a32 32 0 0 0 0 64z" fill="#279cf5" p-id="7129"></path></svg>