<?xml version="1.0" standalone="no"?><!DOCTYPE svg PUBLIC "-//W3C//DTD SVG 1.1//EN" "http://www.w3.org/Graphics/SVG/1.1/DTD/svg11.dtd"><svg t="1541386639704" class="icon" style="" viewBox="0 0 1024 1024" version="1.1" xmlns="http://www.w3.org/2000/svg" p-id="962" xmlns:xlink="http://www.w3.org/1999/xlink" width="128" height="128"><defs><style type="text/css"></style></defs><path d="M962 897.71428584a64.28571416 64.28571416 0 0 1-64.28571416 64.28571416H126.28571416a64.28571416 64.28571416 0 0 1-64.28571416-64.28571416V126.28571416a64.28571416 64.28571416 0 0 1 64.28571416-64.28571416h557.14285722v2.14285693a29.85000029 29.85000029 0 0 1 10.71428555-2.14285693 32.14285752 32.14285752 0 0 1 0 64.28571416 29.85000029 29.85000029 0 0 1-10.71428555-2.14285693V126.28571416H169.14285722a42.98571386 42.98571386 0 0 0-42.85714306 42.85714307v685.71428555a42.98571386 42.98571386 0 0 0 42.85714307 42.85714306h685.71428555a42.98571386 42.98571386 0 0 0 42.85714306-42.85714306V340.57142862h2.14285694a29.85000029 29.85000029 0 0 1-2.14285694-10.71428555 32.14285752 32.14285752 0 0 1 64.28571416 0 29.85000029 29.85000029 0 0 1-2.14285693 10.71428555h2.14285693v557.14285722zM534.71428614 449.21428613L883.14285693 100.78571445a32.20714248 32.20714248 0 0 1 45.64285752 45.42857139L580.14285752 494.85714278a32.20714248 32.20714248 0 1 1-45.42857138-45.64285664z" p-id="963" fill="#3dc87e"></path></svg>