<?xml version="1.0" standalone="no"?><!DOCTYPE svg PUBLIC "-//W3C//DTD SVG 1.1//EN" "http://www.w3.org/Graphics/SVG/1.1/DTD/svg11.dtd"><svg t="1543459142662" class="icon" style="" viewBox="0 0 1024 1024" version="1.1" xmlns="http://www.w3.org/2000/svg" p-id="1577" xmlns:xlink="http://www.w3.org/1999/xlink" width="128" height="128"><defs><style type="text/css"></style></defs><path d="M626.2 588.4C686 549 727.6 480.3 734.6 400H764c15.5 0 28-12.5 28-28s-12.5-28-28-28c0-154.6-97.3-280-252-280S260 189.4 260 344c-15.5 0-28 12.5-28 28s12.5 28 28 28h29.4c6.9 80.3 48.6 149 108.3 188.4C268.5 635.2 176 758.6 176 904c0 14.3 5.5 28.7 16.4 39.6S217.7 960 232 960h560c14.3 0 28.7-5.5 39.6-16.4S848 918.3 848 904c0-145.4-92.5-268.8-221.8-315.6zM512 120c123.5 0 196 100.5 196 224H316c0-123.5 72.5-224 196-224zM346.7 400h330.6c-6.4 58.7-35.1 110.8-81.9 141.6-17.7 11.7-27.3 32.3-24.8 53.3s16.6 38.9 36.5 46.1c2.5 0.9 4.7 2.3 7.1 3.2C597.9 662.5 561.6 680 512 680s-85.9-17.5-102.3-35.8c2.4-1 4.6-2.3 7.1-3.2 19.9-7.2 34.1-25 36.5-46.1 2.5-21-7.1-41.7-24.8-53.3-46.7-30.8-75.4-82.9-81.8-141.6zM232 904c0-95.4 49.7-182.5 127.6-233.5 22.8 33.1 68.9 57.4 124.4 63.6V904H232z m308 0V734.1c55.6-6.2 101.6-30.5 124.4-63.6C742.3 721.5 792 808.6 792 904H540z" fill="#ffa727" p-id="1578"></path></svg>