<?xml version="1.0" standalone="no"?><!DOCTYPE svg PUBLIC "-//W3C//DTD SVG 1.1//EN" "http://www.w3.org/Graphics/SVG/1.1/DTD/svg11.dtd"><svg t="1540535908121" class="icon" style="" viewBox="0 0 1024 1024" version="1.1" xmlns="http://www.w3.org/2000/svg" p-id="2493" xmlns:xlink="http://www.w3.org/1999/xlink" width="128" height="128"><defs><style type="text/css"></style></defs><path d="M488.8 730.2l-26.7 39.1s-19.2 35.7 19.4 53.3C581 868.2 607.1 926.5 621.8 945c15.1 19 40.7 18.9 52.1-3.8 40-79.7 84.5-252.1 283.7-401.6-236.9 86.5-310.1 272.6-310.1 272.6S602.2 743 550.3 722c-45.2-18.4-61.5 8.2-61.5 8.2z m0 0" p-id="2494"></path><path d="M452.9 885.9c-37.2-17-52.8-44-59.4-63.6-13.7-41 2.5-76.2 7.8-86.1 1.1-2.1 2.4-4.2 3.8-6.2l26.2-38.4C446 669.2 476.8 646 521 646c17.8 0 36.4 3.9 55.1 11.5 22.1 9 42.4 22.8 60 37.9 10.3-14.2 22.8-29.5 36.6-45.1-40-23.1-86.1-43.1-130-57.9-5.3-1.8-38.2-17-17.6-80.9h-0.3c53.7-56.4 89.3-147.4 89.3-236.8C614.2 137.1 530 65 425.8 65 321.7 65 238 137.1 238 274.6c0 89.8 35.3 181.1 89.4 237.4 21 56.4-16.6 77.3-24.5 80.3C194 632.5 66 705.9 66 778.4v27.1c0 98.7 187.4 121.2 360.9 121.2 29.3 0 59-0.7 88-2.2-15-12.8-34.8-26.1-62-38.6z m0 0" p-id="2495"></path></svg>