<?xml version="1.0" standalone="no"?><!DOCTYPE svg PUBLIC "-//W3C//DTD SVG 1.1//EN" "http://www.w3.org/Graphics/SVG/1.1/DTD/svg11.dtd"><svg t="1545042887573" class="icon" style="" viewBox="0 0 1024 1024" version="1.1" xmlns="http://www.w3.org/2000/svg" p-id="1447" xmlns:xlink="http://www.w3.org/1999/xlink" width="200" height="200"><defs><style type="text/css"></style></defs><path d="M909.824 0H114.176C51.712 0 0 50.688 0 113.152V911.36c0 62.464 51.2 112.64 114.176 112.64h795.648c62.976 0 114.176-50.176 114.176-113.152V113.152C1024 50.688 972.288 0 909.824 0z m50.688 910.848c0 27.136-23.04 49.664-50.688 49.664H114.176c-27.648 0-50.688-22.528-50.688-49.664V113.152c0-27.136 23.04-49.664 50.688-49.664h795.648c27.648 0 50.688 22.528 50.688 49.664v797.696zM788.48 254.976L601.088 235.52c-14.336-1.536-27.648 8.704-29.184 23.552-1.536 14.336 9.216 27.136 24.064 28.672l122.368 12.8L491.52 474.112 437.248 343.552c-3.072-7.168-9.216-12.8-16.896-15.36-7.68-2.048-15.872-1.024-22.528 3.072L203.776 457.728c-12.288 7.68-15.36 24.064-7.68 36.352 8.192 12.288 24.576 15.36 36.864 7.168l166.912-108.544 55.296 133.632c3.072 7.168 9.728 13.312 17.408 15.36 2.048 0.512 4.608 1.024 6.656 1.024 5.632 0 11.776-2.048 16.384-5.12l235.52-180.736-15.36 89.088c-2.048 13.824 6.656 27.136 20.48 29.696 13.824 3.072 27.648-5.632 31.232-19.456l43.52-168.96c2.048-7.168 0.512-15.36-3.584-21.504-3.584-5.632-10.752-10.24-18.944-10.752z m-51.2 385.536H218.624c-14.848 0-26.624 11.776-26.624 26.112s11.776 26.112 26.624 26.112H737.28c14.848 0 26.624-11.776 26.624-26.112s-11.776-26.112-26.624-26.112z m-198.656 168.96H218.624c-14.848 0-26.624 11.776-26.624 26.112s11.776 26.112 26.624 26.112h319.488c14.848 0 26.624-11.776 26.624-26.112s-11.264-26.112-26.112-26.112z" p-id="1448"></path></svg>