<?xml version="1.0" standalone="no"?><!DOCTYPE svg PUBLIC "-//W3C//DTD SVG 1.1//EN" "http://www.w3.org/Graphics/SVG/1.1/DTD/svg11.dtd"><svg t="1541575980516" class="icon" style="" viewBox="0 0 1024 1024" version="1.1" xmlns="http://www.w3.org/2000/svg" p-id="18249" xmlns:xlink="http://www.w3.org/1999/xlink" width="128" height="128"><defs><style type="text/css">html, * { user-select: text !important; }
</style></defs><path d="M836.969814 389.491829 836.969814 389.491829c0 75.588559-25.801642 145.144728-69.095681 200.345957l0.014326 0L512.001535 959.481567 256.104377 589.837786l0.008186 0c-43.269479-55.200206-69.083401-124.766608-69.083401-200.345957 0-179.485861 145.487535-324.972373 324.972373-324.972373C691.482279 64.519456 836.969814 210.018248 836.969814 389.491829L836.969814 389.491829zM512.001535 564.214199 512.001535 564.214199c96.492658 0 174.71316-78.229712 174.712137-174.723394 0-96.492658-78.220502-174.71316-174.712137-174.71316-96.491635 0-174.712137 78.228689-174.712137 174.72237C337.288374 485.99165 415.508877 564.214199 512.001535 564.214199L512.001535 564.214199z" p-id="18250" fill="#bcc5cc"></path></svg>