<?xml version="1.0" standalone="no"?><!DOCTYPE svg PUBLIC "-//W3C//DTD SVG 1.1//EN" "http://www.w3.org/Graphics/SVG/1.1/DTD/svg11.dtd"><svg t="1541054627535" class="icon" style="" viewBox="0 0 1024 1024" version="1.1" xmlns="http://www.w3.org/2000/svg" p-id="4015" xmlns:xlink="http://www.w3.org/1999/xlink" width="200" height="200"><defs><style type="text/css"></style></defs><path d="M950.6 353.108L673.864 80.028c-12.712-12.57-33.35-12.57-46.06 0L74.327 626.189a31.922 31.922 0 0 0 0 45.544L351.065 944.81c12.712 12.57 33.35 12.57 46.108 0l553.428-546.205a31.827 31.827 0 0 0 0-45.497z m-92.214 45.497l-461.214 455.21c-12.758 12.57-33.396 12.57-46.108 0L166.565 671.732a31.924 31.924 0 0 1 0-45.544l115.301-113.783 92.229 91.033 46.13-45.498-92.237-91.042-13.998 13.805 82.503-81.416-22.398 22.114L489.41 535.19l46.13-45.544-115.309-113.785 61.263-60.454-15.137 14.951 92.214 91.043 46.155-45.545-92.247-91.027 46.107-45.5 115.277 113.778 46.155-45.497-115.292-113.792-20.741 20.446 43.818-43.242c12.71-12.57 33.348-12.57 46.06 0l184.523 182.084a31.826 31.826 0 0 1 0 45.498zM189.619 603.438l115.314 113.79 46.131-45.497L235.75 557.94l-46.13 45.497z" p-id="4016"></path></svg>