<?xml version="1.0" standalone="no"?><!DOCTYPE svg PUBLIC "-//W3C//DTD SVG 1.1//EN" "http://www.w3.org/Graphics/SVG/1.1/DTD/svg11.dtd"><svg t="1547170783154" class="icon" style="" viewBox="0 0 1024 1024" version="1.1" xmlns="http://www.w3.org/2000/svg" p-id="2231" xmlns:xlink="http://www.w3.org/1999/xlink" width="128" height="128"><defs><style type="text/css"></style></defs><path d="M517.654925 447.136478c68.837254 0 124.897433-54.210866 124.897433-120.908418 0-66.697552-56.060179-120.908418-124.897433-120.908418-68.837254 0-124.897433 54.210866-124.897432 120.908418 0 66.697552 56.044896 120.908418 124.897432 120.908418zm0-182.44012c34.647881 0 62.693254 27.86197 62.693254 62.234746 0 34.326925-28.045373 62.234746-62.693254 62.234747-34.60203 0-62.693254-27.907821-62.693253-62.234747 0-34.372776 28.091224-62.234746 62.693253-62.234746zm-120.893134 365.338746c1.803463 2.567642 3.576358 4.630925 5.028299 6.113433 42.136836 51.001313 84.60991 84.930866 86.44394 86.367523l29.589015 23.521433 29.466746-23.704836c1.83403-1.436657 44.169552-35.763582 86.22997-86.581493 1.436657-1.528358 3.270687-3.652776 5.058866-6.266268 60.140896-78.282507 134.908179-191.732537 151.811821-289.944836 3.255403-22.390448 3.347104-35.946985 3.347104-37.429493 0.565493-73.391761-28.717851-142.366567-82.409074-193.994507-51.994746-50.007881-120.801433-77.533612-193.673553-77.533612-72.597015 0-141.220299 27.525731-193.215044 77.533612-53.981612 51.903045-83.448358 121.229373-82.882866 195.156059 0 1.176836 0.091701 14.779224 3.224836 36.099821 18.141612 105.08991 102.537552 226.594388 151.97994 290.663164zm120.893134-522.988895c113.816836 0 206.985552 90.937313 206.160239 203.928836 0 0 0 10.224716-2.47594 27.174209-13.617672 79.123104-77.915701 177.136716-129.467224 244.078806-0.412657 0.794746-1.23797 1.558925-1.635343 1.971582-35.885851 43.680478-72.581731 73.223642-72.581732 73.223642s-36.711164-29.145791-72.581731-72.826269c-0.397373-0.397373-1.222687-1.207403-1.650627-1.971582-51.551522-66.529433-115.849552-164.955701-129.45194-243.712-2.47594-16.903642-2.47594-27.174209-2.47594-27.174209-0.840597-112.976239 92.343403-204.693015 206.160238-204.693015zM219.884896 993.432836 901.471522 993.432836c58.643104 0 107.229612-44.521075 107.229612-100.825791 0-56.304716-48.586507-100.810507-107.229612-100.810508L122.513194 791.796537c-22.023642 0-38.835582-15.405851-38.835582-32.98197 0-17.591403 16.81194-32.997254 38.835582-32.997254l121.718448 0a34.036537 34.036537 0 0 0 34.189373-33.914268 34.051821 34.051821 0 0 0-34.189373-33.914269L122.513194 657.988776c-58.627821 0-107.214328 44.505791-107.214328 100.825791 0 56.304716 48.586507 100.810507 107.214328 100.810508l778.958328 0c22.038925 0 38.850866 15.390567 38.850866 32.98197s-16.81194 32.98197-38.850866 32.98197L219.884896 925.589015a34.067104 34.067104 0 0 0-34.189374 33.929552A34.067104 34.067104 0 0 0 219.884896 993.432836z" p-id="2232"></path></svg>