<?xml version="1.0" standalone="no"?><!DOCTYPE svg PUBLIC "-//W3C//DTD SVG 1.1//EN" "http://www.w3.org/Graphics/SVG/1.1/DTD/svg11.dtd"><svg t="1547023665670" class="icon" style="" viewBox="0 0 1024 1024" version="1.1" xmlns="http://www.w3.org/2000/svg" p-id="1129" xmlns:xlink="http://www.w3.org/1999/xlink" width="200" height="200"><defs><style type="text/css"></style></defs><path d="M1024 499.2c-6.4-12.8-172.8-384-512-384s-505.6 364.8-512 384v25.6c6.4 12.8 172.8 384 512 384s505.6-364.8 512-384v-25.6z m-512 345.6C249.6 844.8 96 576 70.4 512 96 448 249.6 179.2 512 179.2c262.4 0 416 268.8 441.6 332.8-25.6 64-179.2 332.8-441.6 332.8z" fill="#14ADC4" p-id="1130"></path><path d="M512 256C371.2 256 256 371.2 256 512s115.2 256 256 256 256-115.2 256-256-115.2-256-256-256z m0 448c-108.8 0-192-83.2-192-192s83.2-192 192-192 192 83.2 192 192-83.2 192-192 192z" fill="#14ADC4" p-id="1131"></path></svg>