<?xml version="1.0" standalone="no"?><!DOCTYPE svg PUBLIC "-//W3C//DTD SVG 1.1//EN" "http://www.w3.org/Graphics/SVG/1.1/DTD/svg11.dtd"><svg t="1546852113447" class="icon" style="" viewBox="0 0 1024 1024" version="1.1" xmlns="http://www.w3.org/2000/svg" p-id="1213" xmlns:xlink="http://www.w3.org/1999/xlink" width="16" height="16"><defs><style type="text/css"></style></defs><path d="M744.754576 199.227484c-65.344241-49.099255-146.592706-78.192873-234.616482-78.192873-215.928864 0-390.965389 175.017082-390.965389 390.964366 0 61.126172 14.030551 118.969579 39.038108 170.514535l-48.574299 34.016745c-31.394011-61.35437-49.109488-130.880863-49.109488-204.53128 0-248.322645 201.295586-449.610044 449.610044-449.610044 102.991676 0 197.868533 34.629705 273.675056 92.853781l0-63.60769c0-16.149818 13.020548-29.246091 29.322839-29.246091 16.207124 0 29.321816 13.134135 29.321816 29.246091l0 136.952138c0 8.094352-3.245927 15.386432-8.53335 20.694321-5.364171 5.307889-12.676717 8.590656-20.732184 8.590656L676.241156 257.872139c-16.150842 0-29.265534-13.019525-29.265534-29.321816 0-16.187681 13.134135-29.321816 29.265534-29.321816L744.754576 199.228507zM275.520589 824.771493c65.344241 49.100278 146.582473 78.19492 234.616482 78.19492 215.928864 0 390.965389-175.056991 390.965389-390.966413 0-49.556673-9.219989-96.938819-26.019607-140.540873l49.310056-34.515095c22.774703 53.79623 35.355229 112.937189 35.355229 175.055968 0 248.285806-201.305819 449.611068-449.610044 449.611068-102.981443 0-197.868533-34.630728-273.675056-92.854804l0 63.570851c0 16.186657-13.020548 29.283953-29.322839 29.283953-16.196891 0-29.321816-13.135158-29.321816-29.283953l0-136.953162c0-8.05649 3.245927-15.385409 8.524141-20.656459 5.373381-5.306866 12.684904-8.590656 20.741393-8.590656l136.952138 0c16.160051 0 29.265534 13.019525 29.265534 29.321816 0 16.188704-13.134135 29.321816-29.265534 29.321816L275.520589 824.77047z" p-id="1214" fill="#ffffff"></path></svg>