<?xml version="1.0" standalone="no"?><!DOCTYPE svg PUBLIC "-//W3C//DTD SVG 1.1//EN" "http://www.w3.org/Graphics/SVG/1.1/DTD/svg11.dtd"><svg t="1540535763981" class="icon" style="" viewBox="0 0 1024 1024" version="1.1" xmlns="http://www.w3.org/2000/svg" p-id="2380" xmlns:xlink="http://www.w3.org/1999/xlink" width="128" height="128"><defs><style type="text/css"></style></defs><path d="M881.313696 333.235735l90.21748 40.096658c25.015257 10.024164 35.039421 40.096658 25.015257 65.111914L791.096217 879.326925c-5.057236 10.024164-10.024164 14.991093-20.048329 20.048329L635.766822 979.568569l-30.072493-150.272158c0-10.024164 0-20.048329 5.057236-30.072494l205.359909-440.792309c10.114472-25.195873 40.186965-35.220037 65.202222-25.195873z m0 55.08775c-14.991093-5.057236-25.015257 0-35.039421 10.024165L655.905459 809.157774c0 4.966928-4.966928 10.024164 0 14.991093l10.024164 85.160243L736.008466 864.245524l10.024165-10.024164L936.401446 443.411236c4.966928-14.991093 0-25.015257-10.024164-35.039422L881.313696 388.323485z m0 0" p-id="2381"></path><path d="M743.052474 379.021783V173.842491c0-66.556839-54.455596-121.102743-121.102743-121.102743H162.734633c-66.556839 0-121.102743 54.455596-121.102743 121.102743v660.240232c0 66.556839 54.455596 121.102743 121.102743 121.102743h404.669194l-24.834641-124.0829c0-11.469089 0-22.84787 5.689391-34.316959l194.793897-417.763824zM367.281771 793.715142c-26.821413 0-48.495282-21.673869-48.495282-48.495281s21.673869-48.495282 48.495282-48.495282 48.495282 21.673869 48.495282 48.495282-21.673869 48.495282-48.495282 48.495281zM504.820531 516.28962c-27.543875 27.543875-64.570068 43.528353-104.847341 45.244201v100.331952h-65.382838V496.331599h57.706676c51.0239 0 92.565482-41.541582 92.565482-92.565482s-41.541582-92.565482-92.565482-92.565482-92.565482 41.541582-92.565482 92.565482v7.585854h-65.382838v-7.585854c0-43.25743 16.165094-83.173472 45.424817-112.433195 29.259723-29.259723 69.266073-45.424817 112.433195-45.424817 43.25743 0 83.173472 16.165094 112.433195 45.424817 29.259723 29.259723 45.424817 69.266073 45.424817 112.433195 0.180616 43.25743-15.894171 83.173472-45.244201 112.523503z" p-id="2382"></path></svg>