<?xml version="1.0" standalone="no"?><!DOCTYPE svg PUBLIC "-//W3C//DTD SVG 1.1//EN" "http://www.w3.org/Graphics/SVG/1.1/DTD/svg11.dtd"><svg t="1542008799699" class="icon" style="" viewBox="0 0 1024 1024" version="1.1" xmlns="http://www.w3.org/2000/svg" p-id="1982" xmlns:xlink="http://www.w3.org/1999/xlink" width="128" height="128"><defs><style type="text/css"></style></defs><path d="M165.15 958.17v-55.844c0-162.15 131.449-293.596 293.597-293.596h131.046c162.148 0 293.596 131.446 293.596 293.596v55.844h66.08v-53.502c0-163.602-115.972-301.626-267.931-344.814 69.672-49.222 115.174-130.382 115.174-222.177 0-150.139-121.71-271.848-271.849-271.848s-271.849 121.71-271.849 271.85c0 90.573 44.305 170.786 112.414 220.188-153.36 40.791-266.356 180.598-266.356 346.801v53.502h66.079z m153.107-620.492c0-114.104 92.5-206.604 206.604-206.604s206.605 92.5 206.605 206.604-92.5 206.605-206.605 206.605-206.604-92.5-206.604-206.605z" fill="#1296db" p-id="1983"></path></svg>