<?xml version="1.0" standalone="no"?><!DOCTYPE svg PUBLIC "-//W3C//DTD SVG 1.1//EN" "http://www.w3.org/Graphics/SVG/1.1/DTD/svg11.dtd"><svg t="1542619717795" class="icon" style="" viewBox="0 0 1327 1024" version="1.1" xmlns="http://www.w3.org/2000/svg" p-id="2971" xmlns:xlink="http://www.w3.org/1999/xlink" width="165.875" height="128"><defs><style type="text/css"></style></defs><path d="M174.459319 887.463533v-7.58597c0 2.60199-0.349999 5.10498-0.766997 7.58597h0.765997z m-45.511823-53.096792a45.510822 45.510822 0 0 1 45.510823 45.510822v-8.699966c0 34.133867 27.602892 61.796759 61.644759 61.796759h847.610689c34.041867 0 61.644759-27.662892 61.644759-61.796759V637.153511a45.510822 45.510822 0 1 1 91.021644 0v273.064933c0 62.835755-50.941801 113.777556-113.777555 113.777556H197.21423c-62.835755 0-113.777556-50.941801-113.777556-113.777556v-22.754911h0.765997a45.503822 45.503822 0 0 1-0.765997-7.58597 45.510822 45.510822 0 0 1 45.510822-45.509822z m695.536283-227.152113c-24.992902-2.965988-47.611814 14.835942-50.516802 39.768845-2.905989 24.924903 15.002941 47.535814 39.995843 50.501802s47.611814-14.836942 50.517803-39.768844c2.904989-24.924903-15.003941-47.535814-39.996844-50.501803z m-18.727926 160.137375c-64.587748-7.59297-110.849567-65.504744-103.347597-129.341495 7.509971-63.836751 65.952742-109.439573 130.53249-101.838602a118.002539 118.002539 0 0 1 60.279765 25.280901L993.33612 490.638083c12.969949-9.169964 32.403873-4.292983 43.40983 10.899958 11.005957 15.192941 9.419963 34.936864-3.542986 44.107828l-101.519603 71.800719c4.763981 15.094941 6.560974 31.364877 4.596982 48.067812-7.509971 63.835751-65.945742 109.430573-130.52549 101.837603z m-274.931927-478.478131c-24.802903-3.929985-48.225812 13.007949-52.314795 37.818852a45.154824 45.154824 0 0 0 37.501853 52.041797c24.802903 3.928985 48.225812-13.000949 52.314796-37.819853a45.161824 45.161824 0 0 0-37.501854-52.041796z m172.365327 237.323073c-14.130945 12.129953-33.677868 12.143953-43.667829 0.022999l-76.632701-93.009636c-22.701911 13.789946-50.031805 19.911922-78.073695 15.38294-63.509752-10.26196-106.510584-71.132722-96.043625-135.963469 10.474959-64.822747 70.458725-109.059574 133.969477-98.804614 63.517752 10.26296 106.509584 71.133722 96.042625 135.964469a121.301526 121.301526 0 0 1-10.25496 32.774872l82.169679 99.72261c9.982961 12.120953 6.621974 31.773876-7.508971 43.909829zM75.456705 625.790556c0 35.156863 28.04989 63.646751 62.653756 63.646751 34.595865 0 62.645755-28.489889 62.645755-63.646751 0-35.149863-28.04989-63.646751-62.645755-63.646752-34.603865 0-62.653755 28.496889-62.653756 63.646752zM225.969117 517.534978l89.140652-78.521693c12.70595-11.194956 33.571869-7.887969 46.603818 7.379971 13.038949 15.27694 13.296948 36.727857 0.590998 47.923813l-94.609631 83.329675a141.690447 141.690447 0 0 1 8.518967 48.143812c0 77.489697-61.826758 140.309452-138.10346 140.309451C61.833758 766.101007 0 703.281253 0 625.791556c0-77.489697 61.833758-140.302452 138.110461-140.302452 33.37487 0 63.98075 12.021953 87.859656 32.046874zM1190.869348 204.7992a45.510822 45.510822 0 0 1-45.510822-45.510822v-6.469975c0-34.133867-27.602892-61.796759-61.644759-61.796759H236.103078c-34.041867 0-61.644759 27.662892-61.644759 61.796759v211.269175a45.510822 45.510822 0 1 1-91.021645 0V113.777556C83.436674 50.941801 134.378475 0 197.21423 0h925.388385c62.835755 0 113.777556 50.941801 113.777555 113.777556v45.509822a45.510822 45.510822 0 0 1-45.509822 45.511822z m-3.792985 122.181523a63.654751 63.654751 0 0 0-63.653751 63.654751 63.654751 63.654751 0 0 0 63.653751 63.654751 63.654751 63.654751 0 0 0 63.654751-63.654751 63.654751 63.654751 0 0 0-63.654751-63.654751z m0 203.980203c-77.496697 0-140.324452-62.827755-140.324452-140.325452s62.827755-140.325452 140.324452-140.325452 140.325452 62.827755 140.325452 140.325452-62.827755 140.325452-140.325452 140.325452z" p-id="2972" fill="#ffffff"></path></svg>