<?xml version="1.0" standalone="no"?><!DOCTYPE svg PUBLIC "-//W3C//DTD SVG 1.1//EN" "http://www.w3.org/Graphics/SVG/1.1/DTD/svg11.dtd"><svg t="1542619708427" class="icon" style="" viewBox="0 0 1024 1024" version="1.1" xmlns="http://www.w3.org/2000/svg" p-id="2709" xmlns:xlink="http://www.w3.org/1999/xlink" width="128" height="128"><defs><style type="text/css"></style></defs><path d="M877.714286 780.190476H673.433397L539.705905 913.917968c-0.595302 0.690794-0.818794 1.564444-1.473016 2.218667a36.571429 36.571429 0 0 1-51.721143 0L350.564571 780.190476H146.285714a73.142857 73.142857 0 0 1-73.142857-73.142857V170.666667a73.142857 73.142857 0 0 1 73.142857-73.142857h731.428572a73.142857 73.142857 0 0 1 73.142857 73.142857v536.380952a73.142857 73.142857 0 0 1-73.142857 73.142857z m0-609.523809H146.285714v536.380952h220.935111a36.103111 36.103111 0 0 1 23.974604 10.337524L512 838.184635l120.800508-120.799492A36.103111 36.103111 0 0 1 656.777143 707.047619H877.714286V170.666667zM707.047619 390.095238a48.761905 48.761905 0 1 1-48.761905 48.761905 48.761905 48.761905 0 0 1 48.761905-48.761905z m-195.047619 97.52381a48.761905 48.761905 0 1 1 48.761905-48.761905 48.761905 48.761905 0 0 1-48.761905 48.761905z m-195.047619 0a48.761905 48.761905 0 1 1 48.761905-48.761905 48.761905 48.761905 0 0 1-48.761905 48.761905z" fill="#ffffff" p-id="2710"></path></svg>