<?xml version="1.0" standalone="no"?><!DOCTYPE svg PUBLIC "-//W3C//DTD SVG 1.1//EN" "http://www.w3.org/Graphics/SVG/1.1/DTD/svg11.dtd"><svg t="1542676812648" class="icon" style="" viewBox="0 0 1024 1024" version="1.1" xmlns="http://www.w3.org/2000/svg" p-id="2212" xmlns:xlink="http://www.w3.org/1999/xlink" width="128" height="128"><defs><style type="text/css"></style></defs><path d="M512 1011.512195C245.585171 750.716878 112.390244 546.741073 112.390244 399.609756 112.390244 178.900293 291.290537 0 512 0s399.609756 178.900293 399.609756 399.609756c0 147.131317-133.194927 351.107122-399.609756 611.902439zM512 674.341463c151.726829 0 274.731707-123.004878 274.731707-274.731707S663.726829 124.878049 512 124.878049 237.268293 247.882927 237.268293 399.609756s123.004878 274.731707 274.731707 274.731707z" fill="#ffffff" p-id="2213"></path><path d="M364.14439 201.603122c27.573073 19.980488 51.150049 39.561366 70.331317 59.541854l-29.970731 29.571122c-16.384-18.382049-39.561366-38.762146-69.931708-60.341074l29.571122-28.771902z m-7.192975 97.90439c25.575024 19.181268 47.553561 37.962927 65.13639 57.144195l-29.571122 29.970732c-15.185171-18.382049-36.764098-37.563317-65.13639-58.343024l29.571122-28.771903z m32.36839 109.493073l37.962927 15.185171a1271.40839 1271.40839 0 0 1-54.346927 141.461854l-41.959025-18.382049a1164.238049 1164.238049 0 0 0 58.343025-138.264976z m49.152-191.413073H695.820488v40.360586h-28.771903v262.943219c0 29.171512-13.986341 43.957073-41.559414 43.957073H557.955122l-8.791415-39.960975c21.578927 1.598439 42.358634 2.797268 61.939513 2.797268 9.590634 0 14.385951-5.994146 14.385951-17.582829V257.948098h-187.017366V217.587512z m14.785561 88.313756h133.869268v157.046634h-133.869268v-157.046634z m95.107122 119.483317v-81.92h-55.945366v81.92h55.945366z" fill="#ffffff" p-id="2214"></path></svg>