<?xml version="1.0" standalone="no"?><!DOCTYPE svg PUBLIC "-//W3C//DTD SVG 1.1//EN" "http://www.w3.org/Graphics/SVG/1.1/DTD/svg11.dtd"><svg t="1542619550076" class="icon" style="" viewBox="0 0 1024 1024" version="1.1" xmlns="http://www.w3.org/2000/svg" p-id="2183" xmlns:xlink="http://www.w3.org/1999/xlink" width="128" height="128"><defs><style type="text/css"></style></defs><path d="M840.74496 550.608896c16.861184-41.355264 26.294272-86.51776 26.294272-133.888C867.037184 220.813312 707.66592 61.44 511.756288 61.44c-195.907584 0-355.280896 159.373312-355.280896 355.280896 0 47.37024 9.332736 92.530688 26.294272 133.888L9.945088 756.447232l176.232448 43.65312 73.568256 166.00064 170.81344-203.534336c9.940992 2.312192 20.076544 4.317184 30.312448 5.722112 16.66048 2.408448 33.521664 3.713024 50.78016 3.713024 17.266688 0 34.228224-1.304576 50.788352-3.713024a384.966656 384.966656 0 0 0 30.408704-5.722112l170.817536 203.534336 73.56416-166.00064 176.234496-43.65312-172.720128-205.838336zM221.708288 757.85216l-122.742784-30.408704 107.988992-128.6656c4.818944 8.032256 9.936896 15.958016 15.355904 23.586816 39.243776 54.996992 93.640704 98.451456 157.165568 124.04736L272.893952 873.472l-51.185664-115.61984z m334.708736-38.836224c-3.411968 0.497664-6.721536 1.101824-10.233856 1.497088-11.343872 1.308672-22.784 2.013184-34.428928 2.013184s-23.083008-0.70656-34.42688-2.013184c-3.40992-0.395264-6.823936-0.999424-10.233856-1.497088a308.948992 308.948992 0 0 1-53.794816-12.951552c-27.40224-9.330688-53.190656-22.378496-76.476416-38.739968a310.106112 310.106112 0 0 1-41.752576-35.022848c-27.396096-27.498496-49.577984-60.116992-64.93184-96.350208-15.558656-36.632576-24.18688-76.980224-24.18688-119.230464 0-168.607744 137.193472-305.801216 305.801216-305.801216s305.801216 137.193472 305.801216 305.801216c0 42.25024-8.626176 82.599936-24.18688 119.230464-15.355904 36.231168-37.533696 68.851712-64.929792 96.350208a310.233088 310.233088 0 0 1-41.752576 35.022848c-23.287808 16.361472-49.076224 29.308928-76.480512 38.739968-17.352704 5.824512-35.315712 10.24-53.786624 12.951552z m245.387264 38.836224L750.620672 873.472l-106.586112-126.957568c63.531008-25.595904 117.92384-69.050368 157.167616-124.04736a367.04256 367.04256 0 0 0 15.355904-23.586816l107.988992 128.6656-122.742784 30.306304z m0 0" p-id="2184" fill="#ffffff"></path><path d="M698.636288 405.536768l-71.684096 69.871616 16.922624 98.666496c5.687296 33.124352-13.236224 47.609856-43.573248 31.657984l-88.60672-46.585856-88.602624 46.585856c-29.743104 15.640576-49.36704 2.123776-43.569152-31.657984l16.91648-98.666496-71.68-69.871616c-24.068096-23.455744-17.27488-46.292992 16.642048-51.22048l99.059712-14.399488 44.310528-89.767936c14.870528-30.13632 38.688768-30.728192 53.854208 0l44.30848 89.767936 99.06176 14.399488c33.251328 4.829184 41.179136 27.29984 16.64 51.22048z" p-id="2185" fill="#ffffff"></path></svg>